{
  "accessors": [
    {
      "bufferView": 1,
      "componentType": 5126,
      "count": 64812,
      "max": [
        99.05904388427734,
        -56.12892532348633,
        163.99415588378906
      ],
      "min": [
        -5.160955905914307,
        -128.9918670654297,
        -60.499725341796875
      ],
      "type": "VEC3"
    },
    {
      "bufferView": 1,
      "byteOffset": 777744,
      "componentType": 5126,
      "count": 64812,
      "max": [
        1.0,
        0.9999955892562866,
        1.0
      ],
      "min": [
        -1.0,
        -0.9999929070472717,
        -0.9999969601631165
      ],
      "type": "VEC3"
    },
    {
      "bufferView": 0,
      "componentType": 5125,
      "count": 377640,
      "type": "SCALAR"
    }
  ],
  "asset": {
    "extras": {
      "author": "elisaghbini (https://sketchfab.com/elisaghbini)",
      "license": "CC-BY-4.0 (http://creativecommons.org/licenses/by/4.0/)",
      "source": "https://sketchfab.com/3d-models/bearbrick-78446f8e13364929a32000d5108ef17a",
      "title": "Bearbrick"
    },
    "generator": "Sketchfab-15.9.0",
    "version": "2.0"
  },
  "bufferViews": [
    {
      "buffer": 0,
      "byteLength": 1510560,
      "name": "floatBufferViews",
      "target": 34963
    },
    {
      "buffer": 0,
      "byteLength": 1555488,
      "byteOffset": 1510560,
      "byteStride": 12,
      "name": "floatBufferViews",
      "target": 34962
    }
  ],
  "buffers": [
    {
      "byteLength": 3066048,
      "uri": "scene.bin"
    }
  ],
  "materials": [
    {
      "doubleSided": true,
      "name": "material_0",
      "pbrMetallicRoughness": {
        "metallicFactor": 0.0,
        "roughnessFactor": 0.6
      }
    }
  ],
  "meshes": [
    {
      "name": "Object_0",
      "primitives": [
        {
          "attributes": {
            "NORMAL": 1,
            "POSITION": 0
          },
          "indices": 2,
          "material": 0,
          "mode": 4
        }
      ]
    }
  ],
  "nodes": [
    {
      "children": [
        1
      ],
      "matrix": [
        1.0,
        0.0,
        0.0,
        0.0,
        0.0,
        2.220446049250313e-16,
        -1.0,
        0.0,
        0.0,
        1.0,
        2.220446049250313e-16,
        0.0,
        0.0,
        0.0,
        0.0,
        1.0
      ],
      "name": "Sketchfab_model"
    },
    {
      "children": [
        2
      ],
      "name": "bearbrick.obj.cleaner.materialmerger.gles"
    },
    {
      "mesh": 0,
      "name": "Object_2"
    }
  ],
  "scene": 0,
  "scenes": [
    {
      "name": "Sketchfab_Scene",
      "nodes": [
        0
      ]
    }
  ]
}
